
<svg width="461" height="137" viewBox="0 0 461 137" fill="none" xmlns="http://www.w3.org/2000/svg">
<path d="M37.3455 55.54H69.6535V6.422L51.2035 45.946L32.7535 6.34V58L30.2935 57.918V0.517997H32.7535L51.2035 40.124L69.6535 0.599996L72.1135 0.517997V58L37.3455 57.918V55.54ZM88.0222 10.44H90.4822V58H88.0222V10.44ZM108.418 52.998C105.466 49.1167 103.99 42.8573 103.99 34.22C103.99 25.5827 105.466 19.3233 108.418 15.442C111.37 11.5607 116.262 9.62 123.096 9.62C129.929 9.62 134.849 11.506 137.856 15.278L136.052 16.918C133.646 13.6927 129.328 12.08 123.096 12.08C120.362 12.08 118.066 12.3807 116.208 12.982C114.349 13.5287 112.627 14.5947 111.042 16.18C109.511 17.7107 108.363 19.9793 107.598 22.986C106.832 25.938 106.45 29.6827 106.45 34.22C106.45 38.7573 106.832 42.5293 107.598 45.536C108.363 48.488 109.511 50.7567 111.042 52.342C112.627 53.8727 114.349 54.9387 116.208 55.54C118.066 56.0867 120.362 56.36 123.096 56.36C129.328 56.36 133.646 54.7473 136.052 51.522L137.856 53.162C134.849 56.934 129.929 58.82 123.096 58.82C116.262 58.82 111.37 56.8793 108.418 52.998ZM170.091 34.138L181.243 58H178.537L167.057 33.4C167.166 33.3453 167.631 33.1267 168.451 32.744C169.325 32.3067 169.927 32.006 170.255 31.842C170.583 31.6233 171.129 31.268 171.895 30.776C172.66 30.284 173.234 29.8193 173.617 29.382C173.999 28.89 174.409 28.3433 174.847 27.742C175.339 27.086 175.694 26.3753 175.913 25.61C176.131 24.79 176.241 23.9153 176.241 22.986C176.241 19.542 174.601 17 171.321 15.36C168.041 13.72 163.968 12.9 159.103 12.9H152.543V58H150.083V10.44H159.103C165.553 10.44 170.419 11.5607 173.699 13.802C177.033 16.0433 178.701 19.1047 178.701 22.986C178.701 25.5007 177.853 27.742 176.159 29.71C174.464 31.6233 172.441 33.0993 170.091 34.138ZM216.308 12.982C214.449 12.3807 212.153 12.08 209.42 12.08C206.687 12.08 204.391 12.3807 202.532 12.982C200.673 13.5287 198.951 14.5947 197.366 16.18C195.835 17.7107 194.687 19.9793 193.922 22.986C193.157 25.938 192.774 29.6827 192.774 34.22C192.774 38.7573 193.157 42.5293 193.922 45.536C194.687 48.488 195.835 50.7567 197.366 52.342C198.951 53.8727 200.673 54.9387 202.532 55.54C204.391 56.0867 206.687 56.36 209.42 56.36C212.153 56.36 214.449 56.0867 216.308 55.54C218.167 54.9387 219.861 53.8727 221.392 52.342C222.977 50.7567 224.153 48.488 224.918 45.536C225.683 42.5293 226.066 38.7573 226.066 34.22C226.066 29.6827 225.683 25.938 224.918 22.986C224.153 19.9793 222.977 17.7107 221.392 16.18C219.861 14.5947 218.167 13.5287 216.308 12.982ZM224.098 52.998C221.146 56.8793 216.253 58.82 209.42 58.82C202.587 58.82 197.694 56.8793 194.742 52.998C191.79 49.1167 190.314 42.8573 190.314 34.22C190.314 25.5827 191.79 19.3233 194.742 15.442C197.694 11.5607 202.587 9.62 209.42 9.62C216.253 9.62 221.146 11.5607 224.098 15.442C227.05 19.3233 228.526 25.5827 228.526 34.22C228.526 42.8573 227.05 49.1167 224.098 52.998ZM238.402 10.44L256.278 52.506L268.66 23.396L280.96 52.506L297.77 12.9H244.88V10.44H301.46L280.96 58.82L268.66 29.71L256.278 58.82L235.778 10.44H238.402ZM315.065 55.54H341.797L324.987 15.934L307.111 58H304.487L324.987 9.62L345.487 58H315.065V55.54ZM389.528 10.44L369.028 58.82L348.528 10.44H351.152L369.028 52.506L386.904 10.44H389.528ZM430.621 53.162C427.615 56.934 422.695 58.82 415.861 58.82C409.028 58.82 404.135 56.8793 401.183 52.998C398.231 49.1167 396.755 42.8573 396.755 34.22C396.755 25.5827 398.231 19.3233 401.183 15.442C404.135 11.5607 409.028 9.62 415.861 9.62C423.788 9.62 429.173 12.2167 432.015 17.41L411.925 34.22H408.071L428.817 16.918C426.412 13.6927 422.093 12.08 415.861 12.08C413.128 12.08 410.832 12.3807 408.973 12.982C407.115 13.5287 405.393 14.5947 403.807 16.18C402.277 17.7107 401.129 19.9793 400.363 22.986C399.598 25.938 399.215 29.6827 399.215 34.22C399.215 38.7573 399.598 42.5293 400.363 45.536C401.129 48.488 402.277 50.7567 403.807 52.342C405.393 53.8727 407.115 54.9387 408.973 55.54C410.832 56.0867 413.128 56.36 415.861 56.36C422.093 56.36 426.412 54.7473 428.817 51.522L430.621 53.162ZM138.724 115.54H171.032V66.422L152.582 105.946L134.132 66.34V118L131.672 117.918V60.518H134.132L152.582 100.124L171.032 60.6L173.492 60.518V118L138.724 117.918V115.54ZM193.747 115.54H220.479L203.669 75.934L185.793 118H183.169L203.669 69.62L224.169 118H193.747V115.54ZM252.63 86.02L263.536 76.918C261.131 73.6927 256.812 72.08 250.58 72.08C247.847 72.08 245.551 72.3807 243.692 72.982C241.833 73.5287 240.111 74.5947 238.526 76.18C236.995 77.7107 235.847 79.9793 235.082 82.986C234.317 85.938 233.934 89.6827 233.934 94.22C233.934 98.7573 234.317 102.529 235.082 105.536C235.847 108.488 236.995 110.757 238.526 112.342C240.111 113.873 241.833 114.939 243.692 115.54C245.551 116.087 247.847 116.36 250.58 116.36C256.757 116.36 261.049 114.775 263.454 111.604V97.09H265.914V118.738C265.914 129.179 261.131 134.4 251.564 134.4H241.97V131.94H251.564C255.664 131.94 258.671 130.847 260.584 128.66C262.497 126.528 263.454 122.428 263.454 116.36V115.13C260.502 117.59 256.211 118.82 250.58 118.82C243.747 118.82 238.854 116.879 235.902 112.998C232.95 109.117 231.474 102.857 231.474 94.22C231.474 85.5827 232.95 79.3233 235.902 75.442C238.854 71.5607 243.747 69.62 250.58 69.62C258.507 69.62 263.891 72.2167 266.734 77.41L256.484 86.02H252.63ZM280.29 70.44H282.75V118H280.29V70.44ZM300.685 112.998C297.733 109.117 296.257 102.857 296.257 94.22C296.257 85.5827 297.733 79.3233 300.685 75.442C303.637 71.5607 308.53 69.62 315.363 69.62C322.197 69.62 327.117 71.506 330.123 75.278L328.319 76.918C325.914 73.6927 321.595 72.08 315.363 72.08C312.63 72.08 310.334 72.3807 308.475 72.982C306.617 73.5287 304.895 74.5947 303.309 76.18C301.779 77.7107 300.631 79.9793 299.865 82.986C299.1 85.938 298.717 89.6827 298.717 94.22C298.717 98.7573 299.1 102.529 299.865 105.536C300.631 108.488 301.779 110.757 303.309 112.342C304.895 113.873 306.617 114.939 308.475 115.54C310.334 116.087 312.63 116.36 315.363 116.36C321.595 116.36 325.914 114.747 328.319 111.522L330.123 113.162C327.117 116.934 322.197 118.82 315.363 118.82C308.53 118.82 303.637 116.879 300.685 112.998Z" fill="white"/>
<path d="M38.4521 55.54H70.7601V6.422L52.3101 45.946L33.8601 6.34V58L31.4001 57.918V0.517997H33.8601L52.3101 40.124L70.7601 0.599996L73.2201 0.517997V58L38.4521 57.918V55.54ZM89.1287 10.44H91.5887V58H89.1287V10.44ZM109.524 52.998C106.572 49.1167 105.096 42.8573 105.096 34.22C105.096 25.5827 106.572 19.3233 109.524 15.442C112.476 11.5607 117.369 9.62 124.202 9.62C131.036 9.62 135.956 11.506 138.962 15.278L137.158 16.918C134.753 13.6927 130.434 12.08 124.202 12.08C121.469 12.08 119.173 12.3807 117.314 12.982C115.456 13.5287 113.734 14.5947 112.148 16.18C110.618 17.7107 109.47 19.9793 108.704 22.986C107.939 25.938 107.556 29.6827 107.556 34.22C107.556 38.7573 107.939 42.5293 108.704 45.536C109.47 48.488 110.618 50.7567 112.148 52.342C113.734 53.8727 115.456 54.9387 117.314 55.54C119.173 56.0867 121.469 56.36 124.202 56.36C130.434 56.36 134.753 54.7473 137.158 51.522L138.962 53.162C135.956 56.934 131.036 58.82 124.202 58.82C117.369 58.82 112.476 56.8793 109.524 52.998ZM171.197 34.138L182.349 58H179.643L168.163 33.4C168.273 33.3453 168.737 33.1267 169.557 32.744C170.432 32.3067 171.033 32.006 171.361 31.842C171.689 31.6233 172.236 31.268 173.001 30.776C173.767 30.284 174.341 29.8193 174.723 29.382C175.106 28.89 175.516 28.3433 175.953 27.742C176.445 27.086 176.801 26.3753 177.019 25.61C177.238 24.79 177.347 23.9153 177.347 22.986C177.347 19.542 175.707 17 172.427 15.36C169.147 13.72 165.075 12.9 160.209 12.9H153.649V58H151.189V10.44H160.209C166.66 10.44 171.525 11.5607 174.805 13.802C178.14 16.0433 179.807 19.1047 179.807 22.986C179.807 25.5007 178.96 27.742 177.265 29.71C175.571 31.6233 173.548 33.0993 171.197 34.138ZM217.415 12.982C215.556 12.3807 213.26 12.08 210.527 12.08C207.793 12.08 205.497 12.3807 203.639 12.982C201.78 13.5287 200.058 14.5947 198.473 16.18C196.942 17.7107 195.794 19.9793 195.029 22.986C194.263 25.938 193.881 29.6827 193.881 34.22C193.881 38.7573 194.263 42.5293 195.029 45.536C195.794 48.488 196.942 50.7567 198.473 52.342C200.058 53.8727 201.78 54.9387 203.639 55.54C205.497 56.0867 207.793 56.36 210.527 56.36C213.26 56.36 215.556 56.0867 217.415 55.54C219.273 54.9387 220.968 53.8727 222.499 52.342C224.084 50.7567 225.259 48.488 226.025 45.536C226.79 42.5293 227.173 38.7573 227.173 34.22C227.173 29.6827 226.79 25.938 226.025 22.986C225.259 19.9793 224.084 17.7107 222.499 16.18C220.968 14.5947 219.273 13.5287 217.415 12.982ZM225.205 52.998C222.253 56.8793 217.36 58.82 210.527 58.82C203.693 58.82 198.801 56.8793 195.849 52.998C192.897 49.1167 191.421 42.8573 191.421 34.22C191.421 25.5827 192.897 19.3233 195.849 15.442C198.801 11.5607 203.693 9.62 210.527 9.62C217.36 9.62 222.253 11.5607 225.205 15.442C228.157 19.3233 229.633 25.5827 229.633 34.22C229.633 42.8573 228.157 49.1167 225.205 52.998ZM239.509 10.44L257.385 52.506L269.767 23.396L282.067 52.506L298.877 12.9H245.987V10.44H302.567L282.067 58.82L269.767 29.71L257.385 58.82L236.885 10.44H239.509ZM316.172 55.54H342.904L326.094 15.934L308.218 58H305.594L326.094 9.62L346.594 58H316.172V55.54ZM390.635 10.44L370.135 58.82L349.635 10.44H352.259L370.135 52.506L388.011 10.44H390.635ZM431.728 53.162C428.721 56.934 423.801 58.82 416.968 58.82C410.135 58.82 405.242 56.8793 402.29 52.998C399.338 49.1167 397.862 42.8573 397.862 34.22C397.862 25.5827 399.338 19.3233 402.29 15.442C405.242 11.5607 410.135 9.62 416.968 9.62C424.895 9.62 430.279 12.2167 433.122 17.41L413.032 34.22H409.178L429.924 16.918C427.519 13.6927 423.2 12.08 416.968 12.08C414.235 12.08 411.939 12.3807 410.08 12.982C408.221 13.5287 406.499 14.5947 404.914 16.18C403.383 17.7107 402.235 19.9793 401.47 22.986C400.705 25.938 400.322 29.6827 400.322 34.22C400.322 38.7573 400.705 42.5293 401.47 45.536C402.235 48.488 403.383 50.7567 404.914 52.342C406.499 53.8727 408.221 54.9387 410.08 55.54C411.939 56.0867 414.235 56.36 416.968 56.36C423.2 56.36 427.519 54.7473 429.924 51.522L431.728 53.162ZM139.831 115.54H172.139V66.422L153.689 105.946L135.239 66.34V118L132.779 117.918V60.518H135.239L153.689 100.124L172.139 60.6L174.599 60.518V118L139.831 117.918V115.54ZM194.854 115.54H221.586L204.776 75.934L186.9 118H184.276L204.776 69.62L225.276 118H194.854V115.54ZM253.737 86.02L264.643 76.918C262.237 73.6927 257.919 72.08 251.687 72.08C248.953 72.08 246.657 72.3807 244.799 72.982C242.94 73.5287 241.218 74.5947 239.633 76.18C238.102 77.7107 236.954 79.9793 236.189 82.986C235.423 85.938 235.041 89.6827 235.041 94.22C235.041 98.7573 235.423 102.529 236.189 105.536C236.954 108.488 238.102 110.757 239.633 112.342C241.218 113.873 242.94 114.939 244.799 115.54C246.657 116.087 248.953 116.36 251.687 116.36C257.864 116.36 262.155 114.775 264.561 111.604V97.09H267.021V118.738C267.021 129.179 262.237 134.4 252.671 134.4H243.077V131.94H252.671C256.771 131.94 259.777 130.847 261.691 128.66C263.604 126.528 264.561 122.428 264.561 116.36V115.13C261.609 117.59 257.317 118.82 251.687 118.82C244.853 118.82 239.961 116.879 237.009 112.998C234.057 109.117 232.581 102.857 232.581 94.22C232.581 85.5827 234.057 79.3233 237.009 75.442C239.961 71.5607 244.853 69.62 251.687 69.62C259.613 69.62 264.998 72.2167 267.841 77.41L257.591 86.02H253.737ZM281.396 70.44H283.856V118H281.396V70.44ZM301.792 112.998C298.84 109.117 297.364 102.857 297.364 94.22C297.364 85.5827 298.84 79.3233 301.792 75.442C304.744 71.5607 309.637 69.62 316.47 69.62C323.303 69.62 328.223 71.506 331.23 75.278L329.426 76.918C327.021 73.6927 322.702 72.08 316.47 72.08C313.737 72.08 311.441 72.3807 309.582 72.982C307.723 73.5287 306.001 74.5947 304.416 76.18C302.885 77.7107 301.737 79.9793 300.972 82.986C300.207 85.938 299.824 89.6827 299.824 94.22C299.824 98.7573 300.207 102.529 300.972 105.536C301.737 108.488 302.885 110.757 304.416 112.342C306.001 113.873 307.723 114.939 309.582 115.54C311.441 116.087 313.737 116.36 316.47 116.36C322.702 116.36 327.021 114.747 329.426 111.522L331.23 113.162C328.223 116.934 323.303 118.82 316.47 118.82C309.637 118.82 304.744 116.879 301.792 112.998Z" fill="url(#paint0_linear_1_5)"/>
<path d="M39.5587 57.7531H71.8667V8.63512L53.4167 48.1591L34.9667 8.55311V60.2131L32.5067 60.1311V2.73111H34.9667L53.4167 42.3371L71.8667 2.81311L74.3267 2.73111V60.2131L39.5587 60.1311V57.7531ZM90.2353 12.6531H92.6953V60.2131H90.2353V12.6531ZM110.631 55.2111C107.679 51.3298 106.203 45.0704 106.203 36.4331C106.203 27.7958 107.679 21.5364 110.631 17.6551C113.583 13.7738 118.476 11.8331 125.309 11.8331C132.142 11.8331 137.062 13.7191 140.069 17.4911L138.265 19.1311C135.86 15.9058 131.541 14.2931 125.309 14.2931C122.576 14.2931 120.28 14.5938 118.421 15.1951C116.562 15.7418 114.84 16.8078 113.255 18.3931C111.724 19.9238 110.576 22.1924 109.811 25.1991C109.046 28.1511 108.663 31.8958 108.663 36.4331C108.663 40.9704 109.046 44.7424 109.811 47.7491C110.576 50.7011 111.724 52.9698 113.255 54.5551C114.84 56.0858 116.562 57.1518 118.421 57.7531C120.28 58.2998 122.576 58.5731 125.309 58.5731C131.541 58.5731 135.86 56.9604 138.265 53.7351L140.069 55.3751C137.062 59.1471 132.142 61.0331 125.309 61.0331C118.476 61.0331 113.583 59.0924 110.631 55.2111ZM172.304 36.3511L183.456 60.2131H180.75L169.27 35.6131C169.379 35.5584 169.844 35.3398 170.664 34.9571C171.539 34.5198 172.14 34.2191 172.468 34.0551C172.796 33.8364 173.343 33.4811 174.108 32.9891C174.873 32.4971 175.447 32.0324 175.83 31.5951C176.213 31.1031 176.623 30.5564 177.06 29.9551C177.552 29.2991 177.907 28.5884 178.126 27.8231C178.345 27.0031 178.454 26.1284 178.454 25.1991C178.454 21.7551 176.814 19.2131 173.534 17.5731C170.254 15.9331 166.181 15.1131 161.316 15.1131H154.756V60.2131H152.296V12.6531H161.316C167.767 12.6531 172.632 13.7738 175.912 16.0151C179.247 18.2564 180.914 21.3178 180.914 25.1991C180.914 27.7138 180.067 29.9551 178.372 31.9231C176.677 33.8364 174.655 35.3124 172.304 36.3511ZM218.521 15.1951C216.662 14.5938 214.366 14.2931 211.633 14.2931C208.9 14.2931 206.604 14.5938 204.745 15.1951C202.886 15.7418 201.164 16.8078 199.579 18.3931C198.048 19.9238 196.9 22.1924 196.135 25.1991C195.37 28.1511 194.987 31.8958 194.987 36.4331C194.987 40.9704 195.37 44.7424 196.135 47.7491C196.9 50.7011 198.048 52.9698 199.579 54.5551C201.164 56.0858 202.886 57.1518 204.745 57.7531C206.604 58.2998 208.9 58.5731 211.633 58.5731C214.366 58.5731 216.662 58.2998 218.521 57.7531C220.38 57.1518 222.074 56.0858 223.605 54.5551C225.19 52.9698 226.366 50.7011 227.131 47.7491C227.896 44.7424 228.279 40.9704 228.279 36.4331C228.279 31.8958 227.896 28.1511 227.131 25.1991C226.366 22.1924 225.19 19.9238 223.605 18.3931C222.074 16.8078 220.38 15.7418 218.521 15.1951ZM226.311 55.2111C223.359 59.0924 218.466 61.0331 211.633 61.0331C204.8 61.0331 199.907 59.0924 196.955 55.2111C194.003 51.3298 192.527 45.0704 192.527 36.4331C192.527 27.7958 194.003 21.5364 196.955 17.6551C199.907 13.7738 204.8 11.8331 211.633 11.8331C218.466 11.8331 223.359 13.7738 226.311 17.6551C229.263 21.5364 230.739 27.7958 230.739 36.4331C230.739 45.0704 229.263 51.3298 226.311 55.2111ZM240.616 12.6531L258.492 54.7191L270.874 25.6091L283.174 54.7191L299.984 15.1131H247.094V12.6531H303.674L283.174 61.0331L270.874 31.9231L258.492 61.0331L237.992 12.6531H240.616ZM317.279 57.7531H344.011L327.201 18.1471L309.325 60.2131H306.701L327.201 11.8331L347.701 60.2131H317.279V57.7531ZM391.742 12.6531L371.242 61.0331L350.742 12.6531H353.366L371.242 54.7191L389.118 12.6531H391.742ZM432.835 55.3751C429.828 59.1471 424.908 61.0331 418.075 61.0331C411.241 61.0331 406.349 59.0924 403.397 55.2111C400.445 51.3298 398.969 45.0704 398.969 36.4331C398.969 27.7958 400.445 21.5364 403.397 17.6551C406.349 13.7738 411.241 11.8331 418.075 11.8331C426.001 11.8331 431.386 14.4298 434.229 19.6231L414.139 36.4331H410.285L431.031 19.1311C428.625 15.9058 424.307 14.2931 418.075 14.2931C415.341 14.2931 413.045 14.5938 411.187 15.1951C409.328 15.7418 407.606 16.8078 406.021 18.3931C404.49 19.9238 403.342 22.1924 402.577 25.1991C401.811 28.1511 401.429 31.8958 401.429 36.4331C401.429 40.9704 401.811 44.7424 402.577 47.7491C403.342 50.7011 404.49 52.9698 406.021 54.5551C407.606 56.0858 409.328 57.1518 411.187 57.7531C413.045 58.2998 415.341 58.5731 418.075 58.5731C424.307 58.5731 428.625 56.9604 431.031 53.7351L432.835 55.3751ZM140.938 117.753H173.246V68.6351L154.796 108.159L136.346 68.5531V120.213L133.886 120.131V62.7311H136.346L154.796 102.337L173.246 62.8131L175.706 62.7311V120.213L140.938 120.131V117.753ZM195.96 117.753H222.692L205.882 78.1471L188.006 120.213H185.382L205.882 71.8331L226.382 120.213H195.96V117.753ZM254.843 88.2331L265.749 79.1311C263.344 75.9058 259.025 74.2931 252.793 74.2931C250.06 74.2931 247.764 74.5938 245.905 75.1951C244.047 75.7418 242.325 76.8078 240.739 78.3931C239.209 79.9238 238.061 82.1924 237.295 85.1991C236.53 88.1511 236.147 91.8958 236.147 96.4331C236.147 100.97 236.53 104.742 237.295 107.749C238.061 110.701 239.209 112.97 240.739 114.555C242.325 116.086 244.047 117.152 245.905 117.753C247.764 118.3 250.06 118.573 252.793 118.573C258.971 118.573 263.262 116.988 265.667 113.817V99.3031H268.127V120.951C268.127 131.392 263.344 136.613 253.777 136.613H244.183V134.153H253.777C257.877 134.153 260.884 133.06 262.797 130.873C264.711 128.741 265.667 124.641 265.667 118.573V117.343C262.715 119.803 258.424 121.033 252.793 121.033C245.96 121.033 241.067 119.092 238.115 115.211C235.163 111.33 233.687 105.07 233.687 96.4331C233.687 87.7958 235.163 81.5364 238.115 77.6551C241.067 73.7738 245.96 71.8331 252.793 71.8331C260.72 71.8331 266.105 74.4298 268.947 79.6231L258.697 88.2331H254.843ZM282.503 72.6531H284.963V120.213H282.503V72.6531ZM302.898 115.211C299.946 111.33 298.47 105.07 298.47 96.4331C298.47 87.7958 299.946 81.5364 302.898 77.6551C305.85 73.7738 310.743 71.8331 317.576 71.8331C324.41 71.8331 329.33 73.7191 332.336 77.4911L330.532 79.1311C328.127 75.9058 323.808 74.2931 317.576 74.2931C314.843 74.2931 312.547 74.5938 310.688 75.1951C308.83 75.7418 307.108 76.8078 305.522 78.3931C303.992 79.9238 302.844 82.1924 302.078 85.1991C301.313 88.1511 300.93 91.8958 300.93 96.4331C300.93 100.97 301.313 104.742 302.078 107.749C302.844 110.701 303.992 112.97 305.522 114.555C307.108 116.086 308.83 117.152 310.688 117.753C312.547 118.3 314.843 118.573 317.576 118.573C323.808 118.573 328.127 116.96 330.532 113.735L332.336 115.375C329.33 119.147 324.41 121.033 317.576 121.033C310.743 121.033 305.85 119.092 302.898 115.211Z" fill="url(#paint1_linear_1_5)"/>
<defs>
<linearGradient id="paint0_linear_1_5" x1="178.937" y1="51.4224" x2="221.591" y2="137.057" gradientUnits="userSpaceOnUse">
<stop stop-color="white"/>
<stop offset="1" stop-color="#47E50F"/>
</linearGradient>
<linearGradient id="paint1_linear_1_5" x1="8.06762" y1="9.3732" x2="331.898" y2="146.4" gradientUnits="userSpaceOnUse">
<stop stop-color="white"/>
<stop offset="0.713542" stop-color="#47E50F"/>
</linearGradient>
</defs>
</svg>
